<svg id="logo_svg" enable-background="new 0 0 230 75" viewBox="0 0 230 75" x="0" y="0" width="230px" height="80px" version="1.1" xmlns="http://www.w3.org/2000/svg" xml:space="preserve" xmlns:xlink="http://www.w3.org/1999/xlink">
	<title>Sufficient Velocity</title>
	<style>
		#full
{
	fill: rgb(253, 254, 255);
}
	</style>
	<g id="full">
		<!-- Target -->
		<path id="target" d="M191.55 37.56c-0.06-15.45 11.5-28.22 26.43-29.94 -1.17-0.13-2.35-0.21-3.56-0.2 -16.5 0.07-29.82 13.57-29.75 30.14 0.08 16.56 13.51 29.94 30.01 29.86 1.12-0.01 2.23-0.08 3.32-0.2C203.17 65.51 191.62 52.91 191.55 37.56Z"/>

		<!-- Explosion -->
		<g id="explosion">
			<!-- 12 o'clock -->
			<polyline points="184.67 35.98 187.54 0.26 187.49 35.99"/>

			<!-- 11'30 o'clock -->
			<polyline points="185.08 36.84 179.42 5.75 187.49 36.2"/>

			<!-- 11 o'clock -->
			<polyline points="184.56 37.41 172.25 11.35 186.53 36.27"/>

			<!-- 10'30 o'clock -->
			<polyline points="185.68 37.85 170 19.33 187.03 36.49"/>

			<!-- 6 o'clock -->
			<polyline points="184.66 38.84 187.43 74.57 187.48 38.84"/>

			<!-- 6'30 o'clock -->
			<polyline points="185.08 37.98 179.31 69.05 187.48 38.63"/>
	
			<!-- 7 o'clock -->
			<polyline points="184.56 37.14 172.17 63.17 186.52 38.28"/>

			<!-- 7'30 o'clock -->
			<polyline points="185.68 36.97 169.94 55.44 187.03 38.33"/>
		</g>

		<!-- Shot -->
		<polygon id="shot" points="218 37.42 181.95 38.41 0 38.41 0 36.42 181.95 36.42 218 37.42"/>
	
		<!-- Title -->
		<path id="title" d="M32.33 30.55c0 0.47-0.15 0.86-0.45 1.16 -0.3 0.3-0.69 0.45-1.16 0.45h-6.15c-0.47 0-0.86-0.15-1.15-0.45s-0.45-0.68-0.45-1.15V9.56h2.01v20.82h5.36V9.56h2.01V30.55ZM49.1 11.33h-5.27v8.57h4.85v1.81h-4.85v10.44h-2.01V9.56h7.27V11.33ZM65.92 11.33h-5.27v8.57h4.85v1.81h-4.85v10.44h-2.01V9.56h7.27V11.33ZM78.11 32.15H76.1V9.56h2.01V32.15ZM96.45 30.55c0 0.47-0.15 0.86-0.46 1.16 -0.31 0.3-0.7 0.45-1.17 0.45h-5.82c-0.47 0-0.86-0.15-1.15-0.45 -0.3-0.3-0.45-0.68-0.45-1.15V11.16c0-0.47 0.15-0.86 0.45-1.15 0.3-0.3 0.68-0.45 1.15-0.45h5.82c0.47 0 0.86 0.15 1.17 0.45 0.31 0.3 0.46 0.68 0.46 1.16v5.25h-2.02v-5.08h-5.02v19.04h5.02v-5.56h2.02V30.55ZM108.74 32.15h-2.01V9.56h2.01V32.15ZM126.27 32.15h-7.42V9.56h7.33v1.78h-5.33v8.43h4.85v1.8h-4.85v8.81h5.41V32.15ZM145.03 32.15h-1.39l-6.03-16.61v16.61h-1.89V9.56h1.5l5.92 16.33V9.56h1.89V32.15ZM162.35 11.33h-3.49v20.82h-2.01V11.33h-3.52V9.56h9.02V11.33ZM30.38 65.19h-7.42V42.6h7.33v1.78h-5.33v8.43h4.85v1.81h-4.85v8.81h5.41V65.19ZM51.91 65.19h-7.22V42.6h2.01v20.82h5.21V65.19ZM74.51 63.59c0 0.47-0.15 0.86-0.45 1.15 -0.3 0.3-0.69 0.45-1.16 0.45h-6.32c-0.47 0-0.86-0.15-1.15-0.45s-0.45-0.68-0.45-1.15V44.2c0-0.47 0.15-0.86 0.45-1.15 0.3-0.3 0.68-0.45 1.16-0.45h6.32c0.47 0 0.86 0.15 1.16 0.45 0.31 0.3 0.46 0.68 0.46 1.16V63.59ZM72.5 63.42v-19.04h-5.53v19.04H72.5ZM96.45 63.59c0 0.47-0.15 0.86-0.46 1.15s-0.7 0.45-1.17 0.45h-5.82c-0.47 0-0.86-0.15-1.15-0.45s-0.45-0.68-0.45-1.15V44.2c0-0.47 0.15-0.86 0.45-1.15 0.3-0.3 0.68-0.45 1.16-0.45h5.82c0.47 0 0.86 0.15 1.17 0.45 0.31 0.3 0.46 0.68 0.46 1.16v5.26h-2.02v-5.08h-5.02v19.04h5.02v-5.56h2.02V63.59ZM113.62 65.19h-2.01V42.6h2.01V65.19ZM137.56 44.38h-3.49V65.19h-2.01V44.38h-3.52V42.6h9.02V44.38ZM162.96 42.73l-2.74 9.14c-0.35 0.91-0.8 2.44-1.37 4.58v8.75h-2.01v-8.75c-0.13-0.73-0.34-1.5-0.62-2.31 -0.46-1.39-0.71-2.14-0.75-2.27l-2.74-9.14c0-0.01 0-0.05 0-0.13h2.04l3.1 11.3 3.07-11.3h2.02C162.96 42.67 162.96 42.71 162.96 42.73ZM14.32 29.89c0 0.67-0.23 1.21-0.68 1.63 -0.45 0.42-1.05 0.63-1.78 0.63H3.05c-0.73 0-1.33-0.21-1.8-0.63 -0.47-0.42-0.7-0.96-0.7-1.63v-8.09h3.11v7.85h7.56v-7.6l-9.66-10.64C0.88 10.67 0.55 9.86 0.55 8.98v-6.46c0-0.67 0.23-1.21 0.7-1.63 0.47-0.42 1.07-0.63 1.8-0.63h8.81c0.73 0 1.32 0.21 1.78 0.63 0.45 0.42 0.68 0.96 0.68 1.63v7.42h-3.11V2.76H3.65v6.73l9.71 10.64c0.64 0.71 0.96 1.5 0.96 2.38V29.89ZM14.28 42.6L8.76 74.57H6.09L0.57 42.6h2.81l3.95 25.39 0.12 2.08c0.01-0.47 0.06-1.17 0.14-2.08L11.55 42.6H14.28Z"/>
	</g>
</svg>
