<svg xmlns="http://www.w3.org/2000/svg" width="392" height="201.42120361328125">
    <defs id="SvgjsDefs2467"></defs>
    <g id="SvgjsG2468" featurekey="root" fill="#ffffff" transform="matrix(1,0,0,1,0,0)"></g>
    <g id="SvgjsG2469" featurekey="symbol1" fill="#28a5f5"
       transform="matrix(2.1427667616994825,0,0,2.1427667616994825,-17.135178831459285,-6.4277943140956815)">
        <rect x="25.249" y="20.252" transform="matrix(0.7071 0.7071 -0.7071 0.7071 46.463 -22.1737)" fill="#fff"
              stroke="#000"
              stroke-width="2" stroke-linecap="round" stroke-linejoin="round" stroke-miterlimit="10"
              width="49.499" height="49.497"></rect>
        <path stroke="#000" stroke-width="2" stroke-linecap="round" stroke-linejoin="round" stroke-miterlimit="10"
              d="M49.999,69.395  l24.394-24.392L50,20.608L25.608,45.002L49.999,69.395z M63.785,45.002L49.999,58.787L36.214,45.002L50,31.215L63.785,45.002z"></path>
        <rect x="47.754" y="42.754" transform="matrix(-0.707 0.7072 -0.7072 -0.707 117.1804 41.4576)" stroke="#000"
              stroke-width="2" stroke-linecap="round" stroke-linejoin="round" stroke-miterlimit="10" width="4.496"
              height="4.497"></rect>
        <polygon stroke="#000" stroke-width="2" stroke-linecap="round" stroke-linejoin="round" stroke-miterlimit="10"
                 points="  49.999,80 20,50.004 15.002,55 49.999,90 85,55 80,50 "></polygon>
    </g>
    <g id="SvgjsG2470" featurekey="text1" fill="#fff"
       transform="matrix(4.165224220386255,0,0,4.165224220386255,174.25199109226173,18.514019465610737)">
        <path d="M11.42 9.72 l0 2.64 l-6.9 0 l0 3.3 l5.98 0 l0 2.44 l-5.98 0 l0 5.9 l-3.14 0 l0 -14.28 l10.04 0 z M15.86 9.72 l0 2.34 l-2.84 0 l0 -2.34 l2.84 0 z M15.86 13.66 l0 10.34 l-2.84 0 l0 -10.34 l2.84 0 z M23.06 13.38 q2.1 0 3.42 1.07 t1.44 2.85 l-2.78 0 q-0.28 -1.78 -2.1 -1.78 q-1.12 0 -1.77 0.92 t-0.65 2.44 q0 1.46 0.62 2.36 t1.74 0.9 q1.94 0 2.26 -2.1 l2.74 0 q-0.28 2.06 -1.59 3.15 t-3.39 1.09 q-2.3 0 -3.76 -1.47 t-1.46 -3.83 q0 -2.56 1.44 -4.08 t3.84 -1.52 z M39.66 9.72 l0 14.28 l-2.7 0 l0 -1.32 l-0.04 0 q-0.92 1.6 -3.14 1.6 q-2.14 0 -3.39 -1.56 t-1.25 -3.98 q0 -2.36 1.27 -3.86 t3.31 -1.5 q0.94 0 1.77 0.39 t1.29 1.15 l0.04 0 l0 -5.2 l2.84 0 z M31.98 18.82 q0 1.42 0.67 2.37 t1.83 0.95 q1.22 0 1.83 -0.89 t0.61 -2.45 t-0.64 -2.42 t-1.82 -0.86 q-1.22 0 -1.85 0.9 t-0.63 2.4 z M44.64 9.72 l0 5.2 l0.04 0 q0.46 -0.7 1.31 -1.12 t1.95 -0.42 q1.9 0 3.09 1.52 t1.19 3.92 q0 2.42 -1.18 3.94 t-3.12 1.52 q-2.52 0 -3.38 -1.6 l-0.04 0 l0 1.32 l-2.7 0 l0 -14.28 l2.84 0 z M44.54 18.84 q0 1.5 0.66 2.4 t1.76 0.9 q1.08 0 1.75 -0.88 t0.67 -2.42 q0 -1.52 -0.65 -2.42 t-1.79 -0.9 q-1.12 0 -1.76 0.92 t-0.64 2.4 z"></path>
    </g>
    <g id="SvgjsG1121" featurekey="text3" fill="#fff" transform="matrix(1.1580656895807626,0,0,1.1580656895807626,179.01875866263572,121.04618030881376)"><path d="M9.3388 10.441 c0.18661 0 0.33898 0.15254 0.33898 0.32203 l0 1.6949 c0 0.18644 -0.13559 0.32203 -0.33898 0.32203 l-6.0678 0 l0 3.4068 l3.2203 0 c0.18644 0 0.33898 0.15254 0.33898 0.33915 l0 1.6778 c0 0.20339 -0.13559 0.3222 -0.33898 0.3222 l-3.2203 0 l0 5.1356 c0 0.20339 -0.11864 0.33881 -0.30508 0.33881 l-1.2881 0 c-0.52542 0 -0.83051 -0.37288 -0.83051 -0.86441 l0 -12.373 c0 -0.16949 0.13559 -0.32203 0.32203 -0.32203 l8.1695 0 z M24.3554406779661 23.62712 c0.10169 0.20339 0.034229 0.37271 -0.20305 0.37271 l-1.9831 0 c-0.16949 0 -0.27119 -0.08458 -0.33898 -0.22017 l-0.91525 -1.9322 l-6.5256 0 l-0.91525 1.9322 c-0.067797 0.13559 -0.18644 0.22017 -0.33898 0.22017 l-2 0 c-0.20339 0 -0.32203 -0.16933 -0.22034 -0.37271 l6.3898 -13.102 c0.067797 -0.11881 0.15238 -0.16966 0.23712 -0.16966 l0.20339 0 c0.10169 0 0.16949 0.050847 0.23729 0.16966 z M15.423940677966101 19.6441 l4.4576 0 l-2.2203 -4.7288 z M37.796745762711865 10.441 c0.16949 0 0.33915 0.15254 0.33915 0.32203 l0 12.915 c0 0.16949 -0.13559 0.32186 -0.32203 0.32186 l-0.55932 0 c-0.45763 0 -0.94915 -0.32203 -1.5593 -1 l-6.9322 -7.7456 l0 8.4068 c0 0.16949 -0.15254 0.32203 -0.33915 0.32203 l-1.7288 0.016784 c-0.18644 0 -0.33898 -0.15238 -0.33898 -0.33881 l0 -12.898 c0 -0.16949 0.15254 -0.32203 0.32203 -0.32203 l1 0 c0.18644 0 0.30508 0.067797 0.45763 0.25424 l7.5763 8.678 l0 -8.6102 c0 -0.16949 0.13559 -0.32203 0.32203 -0.32203 l1.7627 0 z M48.74557966101695 10.441 c0.18661 0 0.33898 0.15254 0.33898 0.32203 l0 1.6949 c0 0.18644 -0.13559 0.32203 -0.33898 0.32203 l-6.0678 0 l0 3.4068 l3.2203 0 c0.18644 0 0.33898 0.15254 0.33898 0.33915 l0 1.6778 c0 0.20339 -0.13559 0.3222 -0.33898 0.3222 l-3.2203 0 l0 5.1356 c0 0.20339 -0.11864 0.33881 -0.30508 0.33881 l-1.2881 0 c-0.52542 0 -0.83051 -0.37288 -0.83051 -0.86441 l0 -12.373 c0 -0.16949 0.13559 -0.32203 0.32203 -0.32203 l8.1695 0 z M52.949020338983054 10.441 l-1.6778 0 c-0.18644 0 -0.32203 0.15254 -0.32203 0.32203 l0 12.898 c0 0.18644 0.15254 0.33881 0.33898 0.33881 l1.678 0 c0.16933 0 0.32186 -0.16933 0.32186 -0.33881 l0 -12.898 c0 -0.16949 -0.16949 -0.32203 -0.33898 -0.32203 z M67.30506779661017 21.4578 c0.16949 0.13559 0.16933 0.30508 0.016784 0.45763 c-1.2542 1.3729 -3.0339 2.2032 -5.0678 2.2032 c-3.7288 0 -6.8475 -2.9998 -6.8475 -6.8642 c0 -3.8475 3.1186 -6.9322 6.8475 -6.9322 c2.0508 0 3.8475 0.84746 5.1186 2.2373 c0.15254 0.15254 0.13559 0.32203 -0.016949 0.45763 l-1.4068 1.1356 c-0.16966 0.13559 -0.32203 0.11864 -0.45763 -0.033898 c-0.72881 -0.76271 -1.8644 -1.4575 -3.2203 -1.4575 c-2.4915 0 -4.4405 2.1524 -4.4405 4.5931 c0 2.4746 1.949 4.5254 4.4405 4.5254 c1.339 0 2.4576 -0.66102 3.1695 -1.4068 c0.15254 -0.15254 0.30508 -0.16949 0.47458 -0.050847 z  M78.88114745762712 10.441 c4.4068 0 6.9661 3.5424 6.9661 6.7288 c0 3.6102 -2.5763 6.8303 -6.9661 6.8303 l-4.4746 0 c-0.18644 0 -0.33898 -0.15238 -0.33898 -0.33881 l0 -12.898 c0 -0.16949 0.13559 -0.32203 0.32203 -0.32203 l4.4915 0 z M78.88114745762712 21.6612 c2.7966 0 4.4746 -2.1866 4.4576 -4.5086 c0 -2.288 -1.5932 -4.3727 -4.4576 -4.3727 l-2.4068 0 l0.016949 8.8814 l2.3898 0 z M100.94866101694916 23.62712 c0.10169 0.20339 0.034229 0.37271 -0.20305 0.37271 l-1.9831 0 c-0.16949 0 -0.27119 -0.08458 -0.33898 -0.22017 l-0.91525 -1.9322 l-6.5256 0 l-0.91525 1.9322 c-0.067797 0.13559 -0.18644 0.22017 -0.33898 0.22017 l-2 0 c-0.20339 0 -0.32203 -0.16933 -0.22034 -0.37271 l6.3898 -13.102 c0.067797 -0.11881 0.15238 -0.16966 0.23712 -0.16966 l0.20339 0 c0.10169 0 0.16949 0.050847 0.23729 0.16966 z M92.01716101694916 19.6441 l4.4576 0 l-2.2203 -4.7288 z M112.84696610169492 10.441 c0.16949 0 0.32203 0.13592 0.32203 0.32237 l0 1.6949 c0 0.16933 -0.15254 0.32186 -0.32203 0.32186 l-3.8305 0 l0 10.881 c0 0.20339 -0.13559 0.33881 -0.32203 0.33881 l-1.2542 0 c-0.54237 0 -0.84746 -0.37288 -0.84746 -0.86441 l0 -10.356 l-3.8136 0 c-0.16949 0 -0.33898 -0.13559 -0.33898 -0.32203 l0 -1.678 c0 -0.18644 0.15254 -0.33898 0.33898 -0.33898 l10.068 0 z M128.10120338983052 23.62712 c0.10169 0.20339 0.034229 0.37271 -0.20305 0.37271 l-1.9831 0 c-0.16949 0 -0.27119 -0.08458 -0.33898 -0.22017 l-0.91525 -1.9322 l-6.5256 0 l-0.91525 1.9322 c-0.067797 0.13559 -0.18644 0.22017 -0.33898 0.22017 l-2 0 c-0.20339 0 -0.32203 -0.16933 -0.22034 -0.37271 l6.3898 -13.102 c0.067797 -0.11881 0.15238 -0.16966 0.23712 -0.16966 l0.20339 0 c0.10169 0 0.16949 0.050847 0.23729 0.16966 z M119.16970338983052 19.6441 l4.4576 0 l-2.2203 -4.7288 z M137.5424084745763 16.644199999999998 c1.2712 0.74576 2.0847 1.9998 2.0847 3.4744 c0 2.3051 -2.0339 3.8814 -3.9661 3.8814 l-5.5593 0 c-0.18644 0 -0.33898 -0.15238 -0.33898 -0.33881 l0 -12.898 c0 -0.16949 0.13543 -0.32203 0.32203 -0.32203 l4.9831 0 c2.1356 0 3.7966 2.0508 3.7966 3.6271 c0 1.0678 -0.52542 1.9661 -1.322 2.5763 z M134.64410847457629 15.9661 c2.2373 0 2.2542 -3.1864 0 -3.1864 l-2.4576 0 l0 3.1864 l2.4576 0 z M135.05100847457626 21.661 c2.6949 0 2.7288 -3.4237 -0.016949 -3.4237 l-2.8475 0 l0 3.4237 l2.8644 0 z M154.7283220338983 23.62712 c0.10169 0.20339 0.034229 0.37271 -0.20305 0.37271 l-1.9831 0 c-0.16949 0 -0.27119 -0.08458 -0.33898 -0.22017 l-0.91525 -1.9322 l-6.5256 0 l-0.91525 1.9322 c-0.067797 0.13559 -0.18644 0.22017 -0.33898 0.22017 l-2 0 c-0.20339 0 -0.32203 -0.16933 -0.22034 -0.37271 l6.3898 -13.102 c0.067797 -0.11881 0.15238 -0.16966 0.23712 -0.16966 l0.20339 0 c0.10169 0 0.16949 0.050847 0.23729 0.16966 z M145.7968220338983 19.6441 l4.4576 0 l-2.2203 -4.7288 z M156.32203711864406 21.6442 l0.96576 -1.1188 c0.20339 -0.23746 0.45763 -0.23746 0.64407 -0.10186 c0.55932 0.47458 1.5593 1.3729 2.8136 1.3729 c1.2203 0 2.2712 -0.4578 2.2712 -1.5086 c0 -1.1017 -1.1356 -1.4237 -2.3051 -1.8983 c-2.4237 -1 -4.1864 -2.0339 -4.1864 -4.2373 c0 -1.7288 1.2712 -3.8136 4.339 -3.8136 c2.0847 0 3.5934 1.1866 4.0341 1.6273 c0.18644 0.18644 0.28814 0.42373 0.11864 0.62712 l-0.84746 1.1186 c-0.16966 0.22034 -0.40678 0.32203 -0.67797 0.13559 c-0.54237 -0.42373 -1.4237 -1.2034 -2.6102 -1.2034 c-1.2034 0 -1.9492 0.69492 -1.9492 1.5085 c0 0.89831 0.77966 1.339 2.0508 1.8475 c2.2203 0.93254 4.4407 1.9325 4.4407 4.3224 c0 1.9831 -1.9659 3.7964 -4.6439 3.7964 c-2.4237 0 -3.9322 -1.5422 -4.3559 -1.949 c-0.15254 -0.13559 -0.30508 -0.32203 -0.10169 -0.52542 z M176.0508406779661 12.78 l-6.1697 -0.00033103 l0 3.4068 l3.322 0 c0.18644 0 0.33898 0.15254 0.33898 0.33915 l0 1.6778 c0 0.20339 -0.13559 0.3222 -0.33898 0.3222 l-3.322 0 l0 3.1356 l6.1695 0 c0.18644 0 0.33881 0.15238 0.33881 0.33881 l0 1.6613 c0 0.18644 -0.15238 0.33881 -0.33881 0.33881 l-8.2542 0 c-0.18644 0 -0.33898 -0.15238 -0.33898 -0.33881 l0 -12.898 c0 -0.16949 0.13559 -0.32203 0.3222 -0.32203 l8.2712 0 c0.18644 0 0.33881 0.15254 0.33881 0.32203 l0 1.6949 c0 0.18644 -0.15238 0.32203 -0.33881 0.32203 z"></path></g>
</svg>