<svg xmlns="http://www.w3.org/2000/svg" x="0px" y="0px" viewBox="0 0 100 125" enable-background="new 0 0 100 100" xml:space="preserve"
><g><path fill="#ffffff" d="M59.66,22.149c-0.721,0-1.08,0.84-0.54,1.38l9.3,9.54H23.9c-5.46,0-9.9,4.38-9.9,9.84V63.43   c0,1.08,1.62,1.08,1.62,0V42.909c0-4.56,3.66-8.22,8.28-8.22h44.52l-9.3,9.54c-0.78,0.72,0.359,1.92,1.14,1.08l10.56-10.8   c0.42-0.36,0.42-0.96,0-1.26L60.26,22.39C60.08,22.27,59.899,22.149,59.66,22.149L59.66,22.149z M85.16,35.77   c-0.421,0-0.78,0.36-0.78,0.78v20.52c0,4.561-3.66,8.22-8.28,8.22H31.58l9.3-9.54c0.54-0.479,0.18-1.38-0.6-1.38   c-0.181,0.061-0.36,0.12-0.541,0.3L29.12,65.47c-0.36,0.359-0.36,0.96,0.06,1.26l10.56,10.86c0.78,0.779,1.92-0.36,1.141-1.141   l-9.3-9.54H76.1c5.46,0,9.9-4.38,9.9-9.84v-20.52C86,36.129,85.64,35.709,85.16,35.77L85.16,35.77z"/></g>

</svg>